<?xml version="1.0" encoding="UTF-8" standalone="no"?>
<!-- Created with Inkscape (http://www.inkscape.org/) -->

<svg
   xmlns:dc="http://purl.org/dc/elements/1.1/"
   xmlns:cc="http://creativecommons.org/ns#"
   xmlns:rdf="http://www.w3.org/1999/02/22-rdf-syntax-ns#"
   xmlns:svg="http://www.w3.org/2000/svg"
   xmlns="http://www.w3.org/2000/svg"
   xmlns:xlink="http://www.w3.org/1999/xlink"
   xmlns:sodipodi="http://sodipodi.sourceforge.net/DTD/sodipodi-0.dtd"
   xmlns:inkscape="http://www.inkscape.org/namespaces/inkscape"
   id="svg2"
   version="1.1"
   inkscape:version="0.48.5 r10040"
   width="500"
   height="226.14462"
   sodipodi:docname="plomberie-outil-18-preview-9015264.jpg">
  <metadata
     id="metadata8">
    <rdf:RDF>
      <cc:Work
         rdf:about="">
        <dc:format>image/svg+xml</dc:format>
        <dc:type
           rdf:resource="http://purl.org/dc/dcmitype/StillImage" />
        <dc:title></dc:title>
      </cc:Work>
    </rdf:RDF>
  </metadata>
  <defs
     id="defs6">
    <linearGradient
       inkscape:collect="always"
       id="linearGradient3778">
      <stop
         style="stop-color:#b3b3b3;stop-opacity:1;"
         offset="0"
         id="stop3780" />
      <stop
         id="stop3788"
         offset="0.07709853"
         style="stop-color:#eeeeee;stop-opacity:1" />
      <stop
         style="stop-color:#dddddd;stop-opacity:1"
         offset="0.70807511"
         id="stop3792" />
      <stop
         style="stop-color:#f4f4f4;stop-opacity:1"
         offset="0.76353729"
         id="stop3790" />
      <stop
         id="stop3786"
         offset="0.94698006"
         style="stop-color:#c1c1c1;stop-opacity:1" />
      <stop
         style="stop-color:#d1d1d1;stop-opacity:1"
         offset="1"
         id="stop3782" />
    </linearGradient>
    <linearGradient
       inkscape:collect="always"
       id="linearGradient3766">
      <stop
         style="stop-color:#575757;stop-opacity:1"
         offset="0"
         id="stop3768" />
      <stop
         id="stop3774"
         offset="0.55243331"
         style="stop-color:#838383;stop-opacity:1" />
      <stop
         style="stop-color:#545454;stop-opacity:1"
         offset="1"
         id="stop3770" />
    </linearGradient>
    <linearGradient
       inkscape:collect="always"
       xlink:href="#linearGradient3766"
       id="linearGradient3772"
       x1="85.208092"
       y1="111.54797"
       x2="104.3106"
       y2="79.797729"
       gradientUnits="userSpaceOnUse" />
    <linearGradient
       inkscape:collect="always"
       xlink:href="#linearGradient3778"
       id="linearGradient3784"
       x1="21.628929"
       y1="73.147408"
       x2="156.90738"
       y2="94.514839"
       gradientUnits="userSpaceOnUse" />
    <linearGradient
       inkscape:collect="always"
       xlink:href="#linearGradient3778"
       id="linearGradient3800"
       x1="53.025627"
       y1="71.845413"
       x2="118.43674"
       y2="95.571693"
       gradientUnits="userSpaceOnUse" />
    <linearGradient
       inkscape:collect="always"
       xlink:href="#linearGradient3766"
       id="linearGradient3810"
       gradientUnits="userSpaceOnUse"
       x1="85.208092"
       y1="111.54797"
       x2="104.3106"
       y2="79.797729" />
    <linearGradient
       inkscape:collect="always"
       xlink:href="#linearGradient3778"
       id="linearGradient3812"
       gradientUnits="userSpaceOnUse"
       x1="21.628929"
       y1="73.147408"
       x2="156.90738"
       y2="94.514839" />
    <linearGradient
       inkscape:collect="always"
       xlink:href="#linearGradient3778"
       id="linearGradient3814"
       gradientUnits="userSpaceOnUse"
       x1="53.025627"
       y1="71.845413"
       x2="118.43674"
       y2="95.571693" />
  </defs>
  <sodipodi:namedview
     pagecolor="#ffffff"
     bordercolor="#666666"
     borderopacity="1"
     objecttolerance="10"
     gridtolerance="10"
     guidetolerance="10"
     inkscape:pageopacity="0"
     inkscape:pageshadow="2"
     inkscape:window-width="1920"
     inkscape:window-height="1005"
     id="namedview4"
     showgrid="false"
     inkscape:object-paths="true"
     inkscape:snap-global="false"
     fit-margin-top="0"
     fit-margin-left="0"
     fit-margin-right="0"
     fit-margin-bottom="0"
     inkscape:zoom="0.953584"
     inkscape:cx="178.45481"
     inkscape:cy="-74.532968"
     inkscape:window-x="-9"
     inkscape:window-y="-9"
     inkscape:window-maximized="1"
     inkscape:current-layer="svg2" />
  <g
     id="g3802"
     transform="matrix(3.4013782,0,0,3.4013782,-55.201213,-184.40202)">
    <path
       style="color:#000000;fill:url(#linearGradient3810);fill-opacity:1;stroke:none;stroke-width:0.20015943;marker:none;visibility:visible;display:inline;overflow:visible;enable-background:accumulate"
       d="m 27.452114,55.710369 c -0.155976,0.39241 -0.492706,0.621636 0.09205,1.682766 l 6.995626,3.178558 -0.184095,4.393889 -4.786481,3.926454 -5.983102,0.186974 -6.259246,-4.300402 c -0.276143,-0.03633 -0.552286,-0.159881 -0.828429,0.280461 -0.116107,2.504705 -0.313611,5.074649 1.012525,7.011525 4.84782,7.080437 10.850691,4.980385 17.028828,3.459019 4.317348,-1.063148 8.729747,-0.12952 13.162823,1.121843 L 114.6213,100.7711 c 5.23396,1.88649 9.0424,5.29559 12.79463,11.68588 4.69051,7.98821 14.7483,8.99629 22.40572,7.85096 0.39775,-0.0595 0.77272,-0.25105 0.9744,-0.74595 l 0.75321,-1.65945 -12.53532,-6.75438 c -0.50955,-0.27456 -0.83978,-0.91956 0.0326,-1.89144 l 5.57025,-6.20595 c 2.5605,-2.85273 3.43892,-3.241044 7.4104,-0.79894 l 9.90669,6.09172 1.2469,-1.86721 c -4.8754,-15.021963 -13.34984,-15.649868 -23.2003,-13.698378 -11.79118,2.33597 -13.75452,0.765718 -30.65189,-4.954811 L 50.095851,67.770191 c -4.498717,-2.007199 -5.495955,-6.70368 -8.652485,-9.62916 -3.943592,-3.654931 -9.507152,-2.86117 -13.991252,-2.430662 z"
       id="path3757"
       inkscape:connector-curvature="0"
       sodipodi:nodetypes="ccccccccsscsssccssssccsscsc" />
    <path
       sodipodi:nodetypes="ccccccccsscssscssssccsscsc"
       inkscape:connector-curvature="0"
       id="path2987"
       d="m 27.34375,54.594809 c -0.157065,0.389067 -0.496147,0.616341 0.09269,1.668432 l 7.044491,3.151483 -0.185381,4.356462 -4.819915,3.893009 -6.024894,0.185381 -6.302967,-4.263771 c -0.278072,-0.03602 -0.556144,-0.158519 -0.834216,0.278072 -0.116918,2.48337 -0.315802,5.031423 1.019598,6.951801 4.881682,7.020126 10.926484,4.937963 17.147775,3.429555 4.347505,-1.054092 8.790725,-0.128416 13.254767,1.112288 l 67.386122,23.914195 c 5.27052,1.870414 9.10557,5.250484 12.88401,11.586334 4.72327,7.92017 14.84829,8.90216 22.56222,7.78409 0.4448,-0.0645 0.73184,-0.41537 0.98121,-0.7396 l -11.86441,-8.34216 c -0.47433,-0.33351 -0.84565,-0.91173 0.0328,-1.87533 l 5.60915,-6.15309 c 2.57839,-2.82842 3.46295,-3.21343 7.46217,-0.79213 l 9.97589,6.03983 c 0.31176,0.0421 0.39415,-0.20248 0.46345,-0.46345 -4.90346,-15.592302 -12.48892,-16.936013 -22.57017,-14.969548 -11.87354,2.316073 -13.8506,0.759196 -30.866,-4.912606 L 50.145656,66.551906 c -4.530141,-1.990102 -5.534345,-6.646579 -8.712924,-9.54714 -3.971138,-3.623798 -9.57356,-2.836798 -14.088982,-2.409957 z"
       style="color:#000000;fill:url(#linearGradient3812);fill-opacity:1;stroke:none;stroke-width:0.2;marker:none;visibility:visible;display:inline;overflow:visible;enable-background:accumulate" />
    <path
       sodipodi:nodetypes="cccc"
       inkscape:connector-curvature="0"
       id="path3759"
       d="m 42.591367,67.756885 c -1.863549,2.637195 -4.948804,5.17361 -9.407594,7.069308 l 1.848536,-0.236854 c 4.111214,-1.694139 5.812912,-4.107925 7.559058,-6.832454 z"
       style="color:#000000;fill:#626262;fill-opacity:1;stroke:none;stroke-width:0.2;marker:none;visibility:visible;display:inline;overflow:visible;enable-background:accumulate" />
    <path
       sodipodi:nodetypes="ccc"
       inkscape:connector-curvature="0"
       id="path3761"
       d="m 133.72948,94.776218 c -4.35902,1.692384 -7.1772,7.607332 -7.16036,10.566742 0.25588,-2.99229 3.82632,-8.621536 7.16036,-10.566742 z"
       style="color:#000000;fill:#777777;fill-opacity:1;stroke:none;stroke-width:0.2;marker:none;visibility:visible;display:inline;overflow:visible;enable-background:accumulate" />
    <path
       style="color:#000000;fill:#787878;fill-opacity:1;stroke:none;stroke-width:0.2;marker:none;visibility:visible;display:inline;overflow:visible;enable-background:accumulate"
       inkscape:transform-center-x="-23.703282"
       inkscape:transform-center-y="8.029903"
       d="m 58.115654,72.24962 55.500056,19.125541 c 1.23801,0.426576 1.90041,1.756814 1.48027,2.997022 -0.42015,1.240208 -1.75903,1.906882 -2.99702,1.480265 L 56.598894,76.726906 c -1.238009,-0.426577 -1.900405,-1.756815 -1.480263,-2.997023 0.420143,-1.240208 1.759027,-1.906881 2.997023,-1.480263 z"
       id="path3776"
       inkscape:connector-curvature="0"
       sodipodi:nodetypes="sssssss" />
    <path
       sodipodi:nodetypes="sssssss"
       inkscape:connector-curvature="0"
       id="rect3763"
       d="m 58.215196,71.841597 55.500054,19.125541 c 1.23801,0.426576 1.90041,1.756814 1.48027,2.997022 -0.42015,1.240208 -1.75903,1.906882 -2.99702,1.480265 L 56.698436,76.318883 c -1.238009,-0.426577 -1.900405,-1.756815 -1.480263,-2.997023 0.420143,-1.240208 1.759027,-1.906881 2.997023,-1.480263 z"
       inkscape:transform-center-y="8.029903"
       inkscape:transform-center-x="-23.703282"
       style="color:#000000;fill:url(#linearGradient3814);fill-opacity:1;stroke:none;stroke-width:0.2;marker:none;visibility:visible;display:inline;overflow:visible;enable-background:accumulate" />
  </g>
</svg>
